<svg fill="none" height="64" viewBox="0 0 64 64" width="64" xmlns="http://www.w3.org/2000/svg"><g fill="rgb(0,0,0)"><path d="m2 32c0-16.5685 13.4315-30 30-30s30 13.4315 30 30c0 2.5647-.3218 5.0543-.9273 7.4305-.3153 1.2373-1.733 1.7656-2.8388 1.1272-.8227-.475-1.1978-1.4548-.9728-2.3777.4829-1.9808.7389-4.0505.7389-6.18 0-14.3594-11.6406-26-26-26s-26 11.6406-26 26 11.6406 26 26 26c8.8094 0 16.5955-4.3812 21.2982-11.0836.6296-.8972 1.8367-1.2197 2.7859-.6717.9648.557 1.2945 1.7989.6639 2.7172-5.4071 7.874-14.4745 13.0381-24.748 13.0381-16.5685 0-30-13.4315-30-30z"/><path d="m48.3635 19.5368c.8081.753.8528 2.0185.0998 2.8267l-20.5 22c-.3935.4222-.9502.6539-1.5271.6355-.5769-.0185-1.1177-.2852-1.4835-.7318l-9.5-11.6c-.6998-.8546-.5744-2.1147.2802-2.8145.8545-.6999 2.1146-.5745 2.8145.2801l8.0498 9.8292 18.9396-20.3254c.7531-.8082 2.0186-.8528 2.8267-.0998z"/></g></svg>