<svg xmlns="http://www.w3.org/2000/svg" version="1.1" xmlns:xlink="http://www.w3.org/1999/xlink" xmlns:svgjs="http://svgjs.com/svgjs" width="512" height="512" x="0" y="0" viewBox="0 0 90 90" style="enable-background:new 0 0 512 512" xml:space="preserve"><g><g fill-rule="evenodd" clip-rule="evenodd"><path d="M46.024 12.131a31.3 31.3 0 0 0-18.437 5.256A31.31 31.31 0 0 0 14.925 34.67c-.557-.068-1.224-.038-2.016.186-2.957.84-5.18 3.262-6.18 5.396-1.298 2.781-1.845 6.46-1.268 10.256.573 3.785 2.172 6.905 4.172 8.842 2.006 1.938 4.271 2.568 6.521 2.095 3.35-.715 5.011-1.25 4.542-4.37l-2.27-15.13a26.604 26.604 0 0 1 11.786-20.636 26.588 26.588 0 0 1 30.984 1.016A26.599 26.599 0 0 1 71.571 41.98l-1.588 10.583A26.59 26.59 0 0 1 47.5 69.923h-6.766a3.145 3.145 0 0 0-3.152 3.15v1.662a3.145 3.145 0 0 0 3.152 3.151h8.531a3.14 3.14 0 0 0 3.145-3.15v-.87A31.408 31.408 0 0 0 71.114 60.72l2.733.725c2.224.577 4.516-.158 6.521-2.095 2-1.938 3.598-5.057 4.172-8.842.58-3.797.016-7.469-1.266-10.256-1.287-2.787-3.204-4.557-5.417-5.192-.927-.267-1.933-.365-2.796-.39a31.276 31.276 0 0 0-10.99-16.085 31.29 31.29 0 0 0-18.047-6.454z" fill="#272727" data-original="#000000"></path><path d="M56.01 39.35a4.092 4.092 0 0 1 4.087 4.088 4.095 4.095 0 0 1-4.088 4.088 4.093 4.093 0 0 1-4.094-4.088 4.091 4.091 0 0 1 4.094-4.089zm-11.01 0a4.088 4.088 0 1 1-4.09 4.089 4.086 4.086 0 0 1 4.09-4.09zm-11.007 0a4.089 4.089 0 1 1 0 8.176 4.089 4.089 0 0 1 0-8.177zM45 21.786c-11.99 0-21.652 9.344-21.652 21.651 0 5.911 2.235 11.135 5.876 14.968l-1.292 5.792c-.426 1.906.896 3.188 2.61 2.234l5.655-3.155A22.035 22.035 0 0 0 45 65.09c11.994 0 21.65-9.338 21.65-21.65 0-12.308-9.656-21.652-21.65-21.652z" fill="#272727" data-original="#000000"></path></g></g></svg>