<svg xmlns="http://www.w3.org/2000/svg" width="66" height="58" viewBox="0 0 66 58">
  <g id="Path_3" data-name="Path 3" fill="#c71717">
    <path d="M 62 57.5 L 4 57.5 C 2.082811594009399 57.5 0.5207170248031616 55.95064163208008 0.5002062320709229 54.03821563720703 L 8.140060424804688 6.013120174407959 L 8.146269798278809 5.974090099334717 L 8.146269798278809 5.934569835662842 C 8.146269798278809 5.048140048980713 8.909040451049805 3.695460081100464 10.08952045440674 2.488460063934326 C 11.27091979980469 1.280519962310791 12.59967994689941 0.5 13.47469997406006 0.5 L 62 0.5 C 63.92990875244141 0.5 65.5 2.070090055465698 65.5 4 L 65.5 54 C 65.5 55.92990875244141 63.92990875244141 57.5 62 57.5 Z" stroke="none"/>
    <path d="M 13.47470092773438 1 C 12.8624382019043 1 11.68878936767578 1.568351745605469 10.44697952270508 2.838069915771484 C 9.386749267578125 3.922119140625 8.646270751953125 5.195449829101562 8.646270751953125 5.9345703125 L 8.646270751953125 6.01361083984375 L 1.000885009765625 54.07345199584961 C 1.039993286132812 55.69388961791992 2.370323181152344 57 4 57 L 62 57 C 63.65420913696289 57 65 55.65420913696289 65 54 L 65 4 C 65 2.345790863037109 63.65420913696289 1 62 1 L 13.47470092773438 1 M 13.47470092773438 0 L 62 0 C 64.20913696289062 0 66 1.790859222412109 66 4 L 66 54 C 66 56.20914077758789 64.20913696289062 58 62 58 L 4 58 C 1.790863037109375 58 0 56.20914077758789 0 54 L 7.646270751953125 5.9345703125 C 7.646270751953125 3.725429534912109 11.26556015014648 0 13.47470092773438 0 Z" stroke="none" fill="#c71717"/>
  </g>
</svg>
