<svg id="Layer_2" enable-background="new 0 0 512 512" height="512" viewBox="0 0 512 512" width="512" xmlns="http://www.w3.org/2000/svg"><g><g><path d="m201.85 314.54c-6.08 0-12.18-2.21-16.99-6.67l-101.44-94.08c-5.14-4.77-8.05-11.48-8-18.5s3.04-13.69 8.25-18.39l104.22-94.08c10.25-9.25 26.06-8.44 35.31 1.81s8.44 26.06-1.81 35.31l-83.94 75.77 81.4 75.5c10.12 9.39 10.72 25.21 1.33 35.33-4.92 5.31-11.62 8-18.33 8z"/></g><g><path d="m304.54 435.61h-204.46c-13.81 0-25-11.19-25-25s11.19-25 25-25h204.46c45.42 0 82.37-36.95 82.37-82.37s-36.95-82.37-82.37-82.37h-204.46c-13.81 0-25-11.19-25-25s11.19-25 25-25h204.46c72.99 0 132.37 59.38 132.37 132.37s-59.38 132.37-132.37 132.37z"/></g></g></svg>