<svg id="Line" enable-background="new 0 0 32 32" height="512" viewBox="0 0 32 32" width="512" xmlns="http://www.w3.org/2000/svg"><path d="m16 16c2.206 0 4-1.794 4-4s-1.794-4-4-4-4 1.794-4 4 1.794 4 4 4zm0-6c1.103 0 2 .897 2 2s-.897 2-2 2-2-.897-2-2 .897-2 2-2z"/><path d="m6 8v9c0 1.103.897 2 2 2h16c1.103 0 2-.897 2-2v-9c0-1.103-.897-2-2-2h-3.465l-1.703-2.555c-.186-.278-.498-.445-.832-.445h-4c-.334 0-.646.167-.832.445l-1.703 2.555h-3.465c-1.103 0-2 .897-2 2zm6 0c.334 0 .646-.167.832-.445l1.703-2.555h2.93l1.703 2.555c.186.278.498.445.832.445h4v9h-16v-9z"/><path d="m9 5c-.552 0-1-.448-1-1s.448-1 1-1h1c.552 0 1 .448 1 1s-.448 1-1 1z"/><path d="m30 22c0 3.366-6.968 4.932-13.592 4.994l1.299 1.299c.391.391.391 1.023 0 1.414s-1.023.391-1.414 0l-3-3c-.391-.391-.391-1.023 0-1.414l3-3c.391-.391 1.023-.391 1.414 0s.391 1.023 0 1.414l-1.286 1.286c7.19-.072 11.579-1.956 11.579-2.993 0-.196-.303-.677-1.439-1.231-.496-.242-.702-.841-.459-1.337.242-.496.838-.704 1.337-.46 1.699.83 2.561 1.848 2.561 3.028z"/><path d="m2 22c0-1.18.862-2.198 2.561-3.028.498-.243 1.095-.036 1.337.46.243.496.037 1.095-.459 1.337-1.136.554-1.439 1.035-1.439 1.231 0 .493 1.551 1.823 6.158 2.562.545.087.917.601.829 1.146-.088.55-.606.917-1.146.829-2.928-.47-7.841-1.683-7.841-4.537z"/></svg>