<svg height="512" viewBox="0 0 50 50" width="512" xmlns="http://www.w3.org/2000/svg"><g id="Icons"><path d="m38 9h-26a7 7 0 0 0 -7 7v18a7 7 0 0 0 7 7h26a7 7 0 0 0 7-7v-18a7 7 0 0 0 -7-7zm-31 7a5 5 0 0 1 5-5h26a5 5 0 0 1 5 5v16.61l-9.29-9.32a1 1 0 0 0 -.71-.29 1 1 0 0 0 -.71.29l-10.29 10.3-6.29-6.3a1 1 0 0 0 -1.42 0l-7.24 7.24a4.75 4.75 0 0 1 -.05-.53zm31 23h-26a5 5 0 0 1 -4.23-2.36l7.23-7.23 6.29 6.3a1 1 0 0 0 1.42 0l10.29-10.29 9.82 9.84a5 5 0 0 1 -4.82 3.74z"/><path d="m19 23a4 4 0 1 0 -4-4 4 4 0 0 0 4 4zm0-6a2 2 0 1 1 -2 2 2 2 0 0 1 2-2z"/></g></svg>