<svg fill="none" height="512" viewBox="0 0 24 24" width="512" xmlns="http://www.w3.org/2000/svg"><path clip-rule="evenodd" d="m15.0371 4.29614c.4142 0 .75.33579.75.75v3.08405c0 .41421-.3358.75-.75.75s-.75-.33579-.75-.75v-.83112h-12.1748c-.41421 0-.75-.33578-.75-.75 0-.41421.33579-.75.75-.75h12.1748v-.75293c0-.41421.3358-.75.75-.75zm7.7127 2.24566c.0041.41419-.3285.75322-.7426.75724l-4.0344.03912c-.4141.00402-.7532-.3285-.7572-.74269-.004-.4142.3285-.75322.7427-.75724l4.0343-.03912c.4142-.00402.7532.3285.7572.74269zm-13.70769 2.70606c.41422 0 .75.33579.75.75v1.50204.0017 1.5803c0 .4142-.33578.75-.75.75-.41421 0-.75-.3358-.75-.75v-.8311h-6.17981c-.41421 0-.75-.3358-.75-.75s.33579-.75.75-.75h6.17981v-.75294c0-.41421.33579-.75.75-.75zm2.20779 2.25294c0-.4142.3358-.75.75-.75h10c.4142 0 .75.3358.75.75s-.3358.75-.75.75h-10c-.4142 0-.75-.3358-.75-.75zm1.7659 3.7109c.4142 0 .75.3358.75.75v3.084c0 .4142-.3358.75-.75.75s-.75-.3358-.75-.75v-.8311h-9.79294c-.41422 0-.75-.3358-.75-.75s.33578-.75.75-.75h9.79294v-.7529c0-.4142.3358-.75.75-.75zm10.0947 2.2483c.0025.4142-.3312.752-.7454.7546l-6.3748.0393c-.4142.0026-.752-.3312-.7546-.7454-.0025-.4142.3312-.752.7454-.7546l6.3747-.0393c.4143-.0025.7521.3312.7547.7454z" fill="rgb(0,0,0)" fill-rule="evenodd"/></svg>