<svg id="Layer_1" enable-background="new 0 0 497 497" height="512" viewBox="0 0 497 497" width="512" xmlns="http://www.w3.org/2000/svg"><g><path d="m274.654 26.42 54.196 110.096c4.249 8.631 12.461 14.613 21.96 15.997l121.186 17.655c23.922 3.485 33.474 32.961 16.163 49.879l-87.689 85.695c-6.874 6.718-10.011 16.398-8.388 25.884l20.701 121.004c4.087 23.889-20.921 42.106-42.318 30.828l-108.394-57.132c-8.497-4.478-18.647-4.478-27.143 0l-108.394 57.132c-21.397 11.278-46.405-6.94-42.318-30.828l20.7-121.004c1.623-9.486-1.514-19.166-8.388-25.884l-87.688-85.696c-17.311-16.917-7.759-46.394 16.163-49.879l121.186-17.655c9.5-1.384 17.712-7.366 21.96-15.997l54.197-110.095c10.699-21.734 41.609-21.734 52.308 0z" fill="#fff1b5"/><path d="m138.573 327.718c2.424-14.167-2.258-28.616-12.525-38.65l-81.118-79.274c-3.497-3.418-1.563-9.362 3.276-10.066l112.089-16.329c14.188-2.067 26.446-10.997 32.792-23.886l50.116-101.808c2.164-4.396 8.432-4.396 10.596 0l50.116 101.808c6.345 12.89 18.604 21.819 32.792 23.886l112.089 16.329c4.839.705 6.773 6.649 3.276 10.066l-81.117 79.273c-10.268 10.035-14.95 24.484-12.525 38.652l19.146 111.918c.826 4.826-4.243 8.502-8.574 6.219l-100.235-52.832c-6.224-3.281-13.232-5.015-20.265-5.015s-14.042 1.734-20.267 5.016l-100.235 52.832c-4.331 2.283-9.399-1.394-8.574-6.22z" fill="#fed73a"/><g fill="#fc0"><path d="m452.071 209.794c3.497-3.418 1.563-9.362-3.276-10.066l-31.993-4.661c1.622 2.224 1.654 5.505-.619 7.726l-81.117 79.273c-10.268 10.035-14.95 24.484-12.525 38.652l18.925 110.626 27.534 14.513c4.331 2.283 9.399-1.394 8.574-6.219l-19.146-111.918c-2.425-14.168 2.257-28.617 12.525-38.652z"/><path d="m268.026 152.511c6.345 12.89 18.604 21.819 32.792 23.886l24.104 3.511c-9.027-4.123-16.508-11.256-21.008-20.397l-50.116-101.807c-2.164-4.396-8.432-4.396-10.596 0l-10.923 22.189z"/><path d="m232.878 386.024c-6.224-3.281-13.232-5.016-20.265-5.016s-14.042 1.734-20.267 5.016l-70.066 36.93-2.854 16.682c-.826 4.826 4.243 8.502 8.574 6.219l100.233-52.831c3.328-1.754 6.883-3.051 10.543-3.892z"/></g><g fill="#fff1b5"><path d="m252.242 225.936c-4.142 0-7.5 3.358-7.5 7.5v74.298c0 4.142 3.358 7.5 7.5 7.5s7.5-3.358 7.5-7.5v-74.298c0-4.143-3.358-7.5-7.5-7.5z"/><path d="m220.016 226.452c-3.935-1.302-8.176.829-9.479 4.761l-18.78 56.683-19.703-56.914c-1.355-3.915-5.626-5.988-9.541-4.634-3.914 1.355-5.989 5.627-4.634 9.541l25.354 73.236c1.298 3.661 4.767 6.108 8.645 6.108h.064c3.903-.027 7.368-2.53 8.639-6.278l24.195-73.025c1.304-3.931-.828-8.175-4.76-9.478z"/><path d="m310.712 225.936h-20.633c-.251 0-.501.013-.749.038-.196.019-.388.052-.579.087-.049.009-.1.013-.149.023-.228.045-.451.103-.67.169-.013.004-.027.006-.04.01-.225.069-.445.148-.66.237-.01.004-.02.007-.03.011-.209.087-.411.185-.61.289-.018.009-.036.017-.054.026-.187.101-.368.212-.545.327-.028.018-.058.033-.086.052-.18.121-.352.251-.52.386-.023.018-.047.034-.07.052-.19.156-.371.321-.545.495-.001.001-.003.002-.004.003-.033.033-.061.07-.093.104-.136.142-.27.285-.395.438-.046.057-.086.117-.131.175-.105.136-.211.273-.307.416-.035.053-.065.109-.099.163-.097.154-.193.308-.279.469-.024.045-.043.093-.067.138-.088.173-.173.347-.247.527-.017.041-.03.084-.046.126-.073.185-.142.372-.2.564-.016.052-.026.105-.04.157-.051.182-.1.365-.137.552-.017.087-.026.176-.04.264-.025.154-.053.307-.068.464-.015.153-.018.308-.023.463-.003.092-.014.182-.014.275v74.298c0 4.142 3.358 7.5 7.5 7.5s7.5-3.358 7.5-7.5v-24.814c4.555-.025 10.108-.051 13.133-.051 15.892 0 28.821-12.771 28.821-28.467s-12.932-28.466-28.824-28.466zm0 41.934c-3.004 0-8.486.025-13.032.05-.024-4.697-.05-10.426-.05-13.517 0-2.604-.015-8.562-.029-13.467h13.111c7.492 0 13.821 6.167 13.821 13.467s-6.329 13.467-13.821 13.467z"/></g></g></svg>