<svg id="GUIDE_TO_DELETE" enable-background="new 0 0 128 128" height="512" viewBox="0 0 128 128" width="512" xmlns="http://www.w3.org/2000/svg"><g><path d="m85.99 42.44c-2.23 0-4.32.87-5.89 2.44l-21.6 21.6-10.6-10.59c-3.25-3.25-8.54-3.25-11.78 0-3.25 3.25-3.25 8.54 0 11.78l16.61 16.61c1.54 1.54 3.59 2.39 5.77 2.39s4.23-.85 5.77-2.39l27.62-27.62c1.57-1.57 2.44-3.67 2.44-5.89s-.87-4.32-2.44-5.89c-1.58-1.57-3.67-2.44-5.9-2.44zm3.42 11.75-27.62 27.62c-.88.88-2.05 1.36-3.29 1.36s-2.41-.48-3.29-1.36l-16.62-16.61c-.91-.91-1.42-2.13-1.42-3.42s.5-2.5 1.42-3.42c.91-.91 2.13-1.42 3.42-1.42s2.5.5 3.42 1.42l11.83 11.84c.66.66 1.82.66 2.47 0l22.84-22.84c.91-.91 2.13-1.42 3.42-1.42s2.5.5 3.42 1.42c.91.91 1.42 2.13 1.42 3.42s-.51 2.5-1.42 3.41z"/><path d="m121.42 73.11c2.13-2.77 4.33-5.63 4.33-9.11s-2.2-6.34-4.33-9.11c-1.45-1.89-2.82-3.68-3.28-5.4-.49-1.84-.19-4.14.12-6.58.44-3.4.89-6.91-.78-9.8-1.7-2.93-5-4.3-8.19-5.62-2.24-.93-4.37-1.81-5.67-3.12s-2.19-3.43-3.12-5.67c-1.32-3.19-2.69-6.49-5.62-8.19-2.89-1.67-6.4-1.22-9.8-.78-2.44.31-4.74.61-6.58.12-1.72-.45-3.5-1.82-5.39-3.27-2.77-2.13-5.63-4.33-9.11-4.33s-6.34 2.2-9.11 4.33c-1.89 1.45-3.67 2.82-5.4 3.28-1.84.49-4.14.19-6.58-.12-3.4-.44-6.91-.89-9.8.78-2.93 1.7-4.3 5-5.62 8.19-.93 2.24-1.81 4.37-3.12 5.67s-3.43 2.19-5.67 3.12c-3.19 1.32-6.49 2.69-8.19 5.62-1.67 2.89-1.22 6.4-.78 9.8.32 2.44.61 4.74.12 6.58-.45 1.72-1.82 3.5-3.27 5.39-2.13 2.77-4.33 5.63-4.33 9.11s2.2 6.34 4.33 9.11c1.45 1.89 2.82 3.68 3.28 5.4.49 1.84.19 4.14-.12 6.58-.44 3.4-.89 6.91.78 9.8 1.7 2.93 5 4.3 8.19 5.62 2.24.93 4.37 1.81 5.67 3.12s2.19 3.43 3.12 5.67c1.32 3.19 2.69 6.49 5.62 8.19 2.89 1.67 6.4 1.22 9.8.78 2.44-.31 4.74-.61 6.58-.12 1.72.46 3.51 1.83 5.4 3.28 2.77 2.13 5.63 4.33 9.11 4.33s6.34-2.2 9.11-4.33c1.89-1.45 3.68-2.82 5.4-3.28 1.84-.49 4.14-.19 6.58.12 3.4.44 6.91.89 9.8-.78 2.93-1.7 4.3-5 5.62-8.19.93-2.24 1.81-4.37 3.12-5.67s3.43-2.19 5.67-3.12c3.19-1.32 6.49-2.69 8.19-5.62 1.67-2.89 1.22-6.4.78-9.8-.31-2.44-.61-4.74-.12-6.58.44-1.72 1.81-3.51 3.26-5.4zm-6.66 4.49c-.67 2.5-.31 5.26.03 7.93.38 2.95.74 5.73-.34 7.6-1.1 1.91-3.72 2.99-6.5 4.14-2.46 1.02-5.01 2.08-6.81 3.88s-2.85 4.35-3.88 6.81c-1.15 2.77-2.24 5.39-4.14 6.5-1.86 1.08-4.65.72-7.6.34-2.67-.35-5.43-.7-7.93-.03-2.4.64-4.55 2.29-6.63 3.89-2.41 1.85-4.69 3.6-6.98 3.6s-4.56-1.75-6.98-3.6c-2.08-1.6-4.23-3.25-6.63-3.89-1.03-.28-2.11-.38-3.2-.38-1.56 0-3.16.21-4.73.41-2.95.38-5.74.74-7.6-.34-1.91-1.1-2.99-3.72-4.14-6.5-1.02-2.46-2.08-5.01-3.88-6.81s-4.35-2.85-6.81-3.88c-2.77-1.15-5.39-2.24-6.5-4.14-1.08-1.86-.72-4.65-.34-7.6.34-2.67.7-5.43.03-7.93-.64-2.4-2.29-4.55-3.89-6.63-1.85-2.41-3.6-4.69-3.6-6.98s1.75-4.56 3.6-6.98c1.6-2.08 3.25-4.23 3.89-6.63.67-2.5.31-5.26-.03-7.93-.38-2.95-.74-5.73.34-7.6 1.1-1.91 3.72-2.99 6.5-4.14 2.46-1.02 5.01-2.08 6.81-3.88s2.85-4.35 3.88-6.81c1.15-2.77 2.24-5.39 4.14-6.5 1.86-1.08 4.65-.72 7.6-.34 2.67.34 5.43.7 7.93.03 2.4-.64 4.55-2.29 6.63-3.89 2.41-1.85 4.69-3.6 6.98-3.6s4.56 1.75 6.98 3.6c2.08 1.6 4.23 3.25 6.63 3.89 2.51.67 5.26.31 7.93-.03 2.95-.38 5.73-.74 7.6.34 1.91 1.1 2.99 3.72 4.14 6.5 1.02 2.46 2.08 5.01 3.88 6.81s4.35 2.85 6.81 3.88c2.77 1.15 5.39 2.24 6.5 4.14 1.08 1.86.72 4.65.34 7.6-.34 2.67-.7 5.43-.03 7.93.64 2.4 2.29 4.55 3.89 6.63 1.85 2.41 3.6 4.69 3.6 6.98s-1.75 4.56-3.6 6.98c-1.6 2.09-3.25 4.24-3.89 6.63z"/></g></svg>