<?xml version="1.0" encoding="iso-8859-1"?>
<!-- Generator: Adobe Illustrator 19.0.0, SVG Export Plug-In . SVG Version: 6.00 Build 0)  -->
<svg version="1.1" id="Capa_1" xmlns="http://www.w3.org/2000/svg" xmlns:xlink="http://www.w3.org/1999/xlink" x="0px" y="0px"
	 viewBox="0 0 512 512" style="enable-background:new 0 0 512 512;" xml:space="preserve">
<g>
	<g>
		<g>
			<path d="M256,0C114.842,0,0,114.842,0,256s114.842,256,256,256s256-114.842,256-256S397.158,0,256,0z M256,494.933
				C124.25,494.933,17.067,387.75,17.067,256S124.25,17.067,256,17.067S494.933,124.25,494.933,256S387.75,494.933,256,494.933z"/>
			<path d="M311.225,153.575C325.133,164.008,332.8,177.654,332.8,192c0,4.713,3.817,8.533,8.533,8.533
				c4.717,0,8.533-3.821,8.533-8.533c0-19.85-10.092-38.346-28.408-52.079c-15.529-11.656-35.495-18.662-56.925-20.14V102.4
				c0-4.713-3.817-8.533-8.533-8.533s-8.533,3.821-8.533,8.533v17.381c-21.43,1.478-41.396,8.483-56.925,20.14
				c-18.317,13.733-28.408,32.229-28.408,52.079s10.092,38.346,28.408,52.079c18.405,13.805,39.284,18.195,56.925,19.896v111.128
				c-17.706-1.414-34.052-7.195-46.692-16.679C186.867,347.992,179.2,334.346,179.2,320c0-4.713-3.817-8.533-8.533-8.533
				c-4.717,0-8.533,3.821-8.533,8.533c0,19.85,10.092,38.346,28.408,52.079c15.529,11.656,35.495,18.662,56.925,20.14V409.6
				c0,4.713,3.817,8.533,8.533,8.533c4.717,0,8.533-3.821,8.533-8.533v-17.381c21.43-1.478,41.396-8.483,56.925-20.14
				c18.317-13.733,28.408-32.229,28.408-52.079c0-19.846-10.092-38.342-28.408-52.079c-18.248-13.692-39.946-18.041-56.925-19.694
				V136.896C282.24,138.31,298.585,144.091,311.225,153.575z M247.467,246.81c-20.017-2.188-34.662-7.361-46.692-16.385
				C186.867,219.992,179.2,206.346,179.2,192s7.667-27.992,21.575-38.429c12.64-9.48,28.985-15.26,46.692-16.674V246.81z
				 M311.225,281.571C325.133,292.013,332.8,305.658,332.8,320c0,14.346-7.667,27.992-21.575,38.429
				c-12.64,9.48-28.985,15.26-46.692,16.674V265.386C284.538,267.585,299.528,272.802,311.225,281.571z"/>
		</g>
	</g>
</g>
<g>
</g>
<g>
</g>
<g>
</g>
<g>
</g>
<g>
</g>
<g>
</g>
<g>
</g>
<g>
</g>
<g>
</g>
<g>
</g>
<g>
</g>
<g>
</g>
<g>
</g>
<g>
</g>
<g>
</g>
</svg>
