<?xml version="1.0"?>
<svg xmlns="http://www.w3.org/2000/svg" data-name="Layer 1" id="Layer_1" viewBox="0 0 128 128"><title/><path d="M66.17,92H29.83A9.84,9.84,0,0,0,20,101.83V110a2,2,0,0,0,2,2H74a2,2,0,0,0,2-2v-8.17A9.84,9.84,0,0,0,66.17,92ZM72,108H24v-6.17A5.84,5.84,0,0,1,29.83,96H66.17A5.84,5.84,0,0,1,72,101.83Z"/><path d="M112.76,90.48,73.38,55.35a61.42,61.42,0,0,0,5.27-8,8.2,8.2,0,0,0,9.43-13.14L68.37,14.54A8.2,8.2,0,0,0,55.22,24a67.36,67.36,0,0,0-15,11.51A66.09,66.09,0,0,0,29,50.22a8.2,8.2,0,0,0-9.42,13.15L39.25,83.08a8.2,8.2,0,0,0,13.14-9.43,60,60,0,0,0,8-5.27l35.12,39.38a12.16,12.16,0,0,0,8.79,4.09h.36a12.24,12.24,0,0,0,8.13-21.38ZM59.6,17.37a4.2,4.2,0,0,1,5.94,0L85.25,37.08A4.19,4.19,0,1,1,79.32,43L59.6,23.3a4.21,4.21,0,0,1,0-5.93ZM48,80.25a4.19,4.19,0,0,1-5.93,0L22.37,60.54a4.2,4.2,0,0,1,0-5.94,4.21,4.21,0,0,1,5.93,0L48,74.32A4.19,4.19,0,0,1,48,80.25Zm62.43,25.19a8.24,8.24,0,0,1-12-.34L62.08,64.31a2,2,0,0,0-1.49-.67,2,2,0,0,0-1.27.45,55.8,55.8,0,0,1-9.49,6.39L32.14,52.78A60.65,60.65,0,0,1,43.05,38.3,62.49,62.49,0,0,1,57.79,27.14L75.48,44.83a56.41,56.41,0,0,1-6.4,9.49,2,2,0,0,0,.22,2.76l40.8,36.39a8.24,8.24,0,0,1,.34,12Z"/></svg>
