<svg id="Layer_1" height="512" viewBox="0 0 128 128" width="512" xmlns="http://www.w3.org/2000/svg" data-name="Layer 1"><path d="m39.76 16a2 2 0 0 0 -3.47 0l-22.19 39a2 2 0 0 0 1.74 3h44.37a2 2 0 0 0 1.79-3zm-20.49 38 18.73-33 18.77 33z"/><path d="m80 58h24a8 8 0 0 0 8-8v-24a8 8 0 0 0 -8-8h-24a8 8 0 0 0 -8 8v24a8 8 0 0 0 8 8zm-4-32a4 4 0 0 1 4-4h24a4 4 0 0 1 4 4v24a4 4 0 0 1 -4 4h-24a4 4 0 0 1 -4-4z"/><path d="m113.41 84.59-16-16a7.65 7.65 0 0 0 -10.82 0l-16 16a7.67 7.67 0 0 0 0 10.82l16 16a7.65 7.65 0 0 0 10.82 0l16-16a7.68 7.68 0 0 0 0-10.82zm-2.83 8-16 16a3.66 3.66 0 0 1 -5.16 0l-16-16a3.64 3.64 0 0 1 0-5.16l16-16a3.72 3.72 0 0 1 5.16 0l16 16a3.65 3.65 0 0 1 0 5.16z"/><path d="m38 68a22 22 0 1 0 22 22 22 22 0 0 0 -22-22zm0 40a18 18 0 1 1 18-18 18 18 0 0 1 -18 18z"/></svg>