<?xml version="1.0" encoding="iso-8859-1"?>
<!-- Generator: Adobe Illustrator 19.0.0, SVG Export Plug-In . SVG Version: 6.00 Build 0)  -->
<svg version="1.1" id="Capa_1" xmlns="http://www.w3.org/2000/svg" xmlns:xlink="http://www.w3.org/1999/xlink" x="0px" y="0px"
	 viewBox="0 0 512.002 512.002" style="enable-background:new 0 0 512.002 512.002;" xml:space="preserve">
<g>
	<g>
		<path d="M272.035,333.64h-0.516v-97.229h0.516c4.142,0,7.5-3.358,7.5-7.5s-3.358-7.5-7.5-7.5h-16.033c-4.142,0-7.5,3.358-7.5,7.5
			s3.358,7.5,7.5,7.5h0.516v97.229h-0.516c-4.142,0-7.5,3.358-7.5,7.5s3.358,7.5,7.5,7.5h16.033c4.142,0,7.5-3.358,7.5-7.5
			S276.178,333.64,272.035,333.64z"/>
	</g>
</g>
<g>
	<g>
		<path d="M340.176,221.41h-36.074c-4.142,0-7.5,3.358-7.5,7.5c0,4.142,3.358,7.5,7.5,7.5h0.516v97.229h-0.516
			c-4.142,0-7.5,3.358-7.5,7.5c0,4.142,3.358,7.5,7.5,7.5h16.033c4.142,0,7.5-3.358,7.5-7.5c0-4.142-3.358-7.5-7.5-7.5h-0.516
			V236.41h20.558c15.756,0,28.573,14.063,28.573,31.349c-0.001,16.04-10.942,29.437-25.453,31.164
			c-4.113,0.489-7.051,4.22-6.561,8.333c0.454,3.813,3.691,6.614,7.438,6.614c0.295,0,0.595-0.017,0.896-0.053
			c22.051-2.624,38.68-22.425,38.68-46.06C383.749,242.201,364.203,221.41,340.176,221.41z"/>
	</g>
</g>
<g>
	<g>
		<path d="M231.954,221.411h-16.033c-4.142,0-7.5,3.358-7.5,7.5c0,3.5,2.4,6.431,5.642,7.259l-27.052,94.682
			c-0.469,1.642-1.757,2.788-3.179,2.788c-1.375,0-2.663-1.146-3.132-2.787l-27.052-94.683c3.241-0.829,5.641-3.76,5.641-7.259
			c0-4.142-3.358-7.5-7.5-7.5h-16.034c-4.142,0-7.5,3.358-7.5,7.5s3.358,7.5,7.5,7.5h2.359l28.161,98.562
			c2.335,8.174,9.39,13.667,17.603,13.667c8.164,0,15.219-5.492,17.556-13.666l28.161-98.563h2.359c4.142,0,7.5-3.358,7.5-7.5
			C239.454,224.769,236.096,221.411,231.954,221.411z"/>
	</g>
</g>
<g>
	<g>
		<path d="M324.279,117.089l-54.973-97.531c-2.703-4.795-7.801-7.774-13.306-7.774s-10.603,2.979-13.306,7.774l-76.908,136.448
			L12.251,186.984c-5.396,1.089-9.804,5.018-11.505,10.252c-1.701,5.235-0.443,11.004,3.282,15.057l78.202,85.066
			c1.479,1.609,3.498,2.424,5.523,2.424c1.814,0,3.633-0.654,5.074-1.979c3.052-2.803,3.252-7.547,0.449-10.596l-78.203-85.067
			c-0.067-0.073-0.108-0.117-0.059-0.269c0.049-0.152,0.108-0.164,0.206-0.184l156.9-31.658c2.137-0.431,3.98-1.771,5.05-3.669
			l78.593-139.438c0.049-0.087,0.079-0.139,0.238-0.139c0.159,0,0.189,0.052,0.238,0.139l54.973,97.531
			c2.034,3.609,6.608,4.884,10.216,2.851C325.036,125.271,326.313,120.697,324.279,117.089z"/>
	</g>
</g>
<g>
	<g>
		<path d="M511.257,197.236c-1.701-5.235-6.109-9.164-11.505-10.252l-153.535-30.979l-6.173-10.953
			c-2.035-3.608-6.607-4.886-10.216-2.851c-3.608,2.034-4.885,6.608-2.851,10.216l7.859,13.943c1.07,1.899,2.914,3.238,5.05,3.669
			l156.9,31.658c0.098,0.02,0.157,0.031,0.206,0.184c0.049,0.151,0.009,0.196-0.059,0.27L388.604,319.977
			c-1.475,1.604-2.179,3.771-1.929,5.937l18.377,159.003c0.011,0.099,0.018,0.159-0.111,0.253c-0.13,0.094-0.185,0.068-0.274,0.027
			l-145.543-66.612c-1.981-0.907-4.261-0.907-6.242,0l-145.544,66.612c-0.09,0.041-0.144,0.066-0.274-0.027
			c-0.129-0.094-0.123-0.154-0.111-0.253l18.377-159.004c0.25-2.165-0.454-4.332-1.929-5.937l-8.682-9.443
			c-2.803-3.049-7.548-3.248-10.597-0.445c-3.05,2.804-3.249,7.548-0.446,10.597l6.358,6.917L92.052,483.194
			c-0.632,5.469,1.742,10.875,6.195,14.11c2.651,1.927,5.807,2.914,8.983,2.914c2.158,0,4.325-0.456,6.35-1.383l142.422-65.183
			l142.422,65.183c5.006,2.29,10.881,1.704,15.333-1.531c4.454-3.235,6.828-8.642,6.195-14.11l-17.982-155.593l106.003-115.308
			C511.699,208.241,512.958,202.472,511.257,197.236z"/>
	</g>
</g>
<g>
</g>
<g>
</g>
<g>
</g>
<g>
</g>
<g>
</g>
<g>
</g>
<g>
</g>
<g>
</g>
<g>
</g>
<g>
</g>
<g>
</g>
<g>
</g>
<g>
</g>
<g>
</g>
<g>
</g>
</svg>
